<?xml version="1.0" standalone="no"?>
<!DOCTYPE svg PUBLIC "-//W3C//DTD SVG 20010904//EN"
 "http://www.w3.org/TR/2001/REC-SVG-20010904/DTD/svg10.dtd">
<svg version="1.0" xmlns="http://www.w3.org/2000/svg"
 width="192.000000pt" height="192.000000pt" viewBox="0 0 192.000000 192.000000"
 preserveAspectRatio="xMidYMid meet">
<metadata>
Created by potrace 1.11, written by Peter Selinger 2001-2013
</metadata>
<g transform="translate(0.000000,192.000000) scale(0.100000,-0.100000)"
fill="#000000" stroke="none">
<path d="M1078 1205 c-9 -19 -8 -31 1 -48 10 -18 9 -30 -4 -59 -12 -29 -15
-78 -15 -223 l0 -185 195 0 195 0 0 198 c-1 144 -4 203 -14 221 -10 18 -11 31
-2 53 18 48 -23 83 -72 62 -23 -9 -203 -11 -209 -1 -2 4 -18 7 -34 7 -22 0
-32 -7 -41 -25z m71 -6 c16 -17 23 -19 41 -9 28 15 112 15 139 0 17 -8 24 -7
41 10 11 11 26 17 35 14 19 -8 20 -53 1 -60 -12 -5 -10 -12 7 -42 20 -34 22
-50 22 -222 l0 -185 -175 0 -175 0 -3 179 c-2 162 -1 183 17 220 18 35 19 42
6 56 -20 22 -19 37 3 49 9 6 18 11 19 11 1 0 11 -9 22 -21z"/>
<path d="M1222 1108 c-18 -18 -15 -36 8 -48 28 -15 27 -44 -1 -35 -15 5 -19 4
-15 -4 9 -14 83 -15 91 -1 4 6 -3 9 -16 7 -28 -3 -38 23 -11 30 27 7 35 29 16
48 -18 18 -55 20 -72 3z"/>
<path d="M1160 1085 c0 -8 7 -15 15 -15 8 0 15 7 15 15 0 8 -7 15 -15 15 -8 0
-15 -7 -15 -15z"/>
<path d="M1325 1091 c-7 -12 12 -24 25 -16 11 7 4 25 -10 25 -5 0 -11 -4 -15
-9z"/>
<path d="M1122 920 c0 -14 2 -19 5 -12 2 6 2 18 0 25 -3 6 -5 1 -5 -13z"/>
<path d="M1212 920 c0 -14 2 -19 5 -12 2 6 2 18 0 25 -3 6 -5 1 -5 -13z"/>
<path d="M1380 922 c0 -12 4 -22 9 -22 10 0 9 26 -2 36 -4 4 -7 -2 -7 -14z"/>
<path d="M1296 915 c4 -8 8 -15 10 -15 2 0 4 7 4 15 0 8 -4 15 -10 15 -5 0 -7
-7 -4 -15z"/>
<path d="M1160 835 c0 -8 5 -15 10 -15 6 0 10 7 10 15 0 8 -4 15 -10 15 -5 0
-10 -7 -10 -15z"/>
<path d="M1252 830 c0 -14 2 -19 5 -12 2 6 2 18 0 25 -3 6 -5 1 -5 -13z"/>
<path d="M1342 830 c0 -14 2 -19 5 -12 2 6 2 18 0 25 -3 6 -5 1 -5 -13z"/>
<path d="M1122 770 c0 -14 2 -19 5 -12 2 6 2 18 0 25 -3 6 -5 1 -5 -13z"/>
<path d="M1212 770 c0 -14 2 -19 5 -12 2 6 2 18 0 25 -3 6 -5 1 -5 -13z"/>
<path d="M1297 775 c-4 -8 -2 -17 3 -20 6 -4 10 3 10 14 0 25 -6 27 -13 6z"/>
<path d="M1380 769 c0 -11 4 -18 10 -14 5 3 7 12 3 20 -7 21 -13 19 -13 -6z"/>
<path d="M661 983 c0 -40 2 -73 7 -73 4 0 6 24 4 52 -5 89 -9 97 -11 21z"/>
<path d="M471 973 c-1 -56 2 -73 13 -73 25 0 36 83 12 97 -8 4 -16 17 -19 28
-2 11 -5 -13 -6 -52z m16 -45 c-2 -13 -4 -3 -4 22 0 25 2 35 4 23 2 -13 2 -33
0 -45z"/>
<path d="M740 968 c0 -52 3 -69 10 -58 6 8 8 32 4 53 -5 31 -3 36 10 31 11 -4
16 -19 16 -50 0 -24 4 -44 8 -44 4 0 7 12 6 28 -1 15 -3 47 -3 71 -1 37 -3 42
-16 31 -10 -9 -15 -9 -15 -1 0 6 -4 11 -10 11 -6 0 -10 -31 -10 -72z"/>
<path d="M868 1018 c-10 -26 7 -111 22 -116 12 -4 13 -2 3 9 -7 7 -13 28 -13
46 0 26 4 33 20 33 17 0 20 -7 20 -45 0 -36 3 -45 18 -44 10 0 12 3 5 6 -15 6
-18 83 -3 83 6 0 6 7 -2 19 -10 17 -13 17 -27 4 -13 -14 -16 -13 -27 1 -9 12
-13 13 -16 4z"/>
<path d="M524 997 c-8 -23 0 -92 11 -90 5 1 11 7 14 14 2 7 -1 9 -8 5 -6 -4
-11 -3 -11 3 0 5 5 13 10 16 13 8 13 52 0 60 -6 3 -13 0 -16 -8z m13 -29 c-3
-8 -6 -5 -6 6 -1 11 2 17 5 13 3 -3 4 -12 1 -19z"/>
<path d="M567 1004 c-12 -13 -7 -24 8 -18 19 8 19 -3 0 -23 -21 -20 -15 -47
11 -51 18 -3 20 1 15 44 -6 45 -19 63 -34 48z m20 -76 c-3 -7 -5 -2 -5 12 0
14 2 19 5 13 2 -7 2 -19 0 -25z"/>
<path d="M622 958 c1 -48 2 -49 5 -13 3 22 9 45 15 52 8 10 6 13 -6 13 -13 0
-16 -10 -14 -52z"/>
<path d="M817 1003 c-11 -10 -8 -25 3 -18 6 3 10 2 10 -4 0 -5 -4 -13 -10 -16
-5 -3 -10 -17 -10 -31 0 -17 5 -24 20 -24 16 0 20 7 20 34 0 54 -14 79 -33 59z
m10 -75 c-3 -7 -5 -2 -5 12 0 14 2 19 5 13 2 -7 2 -19 0 -25z"/>
<path d="M687 973 c4 -15 7 -45 7 -65 1 -49 12 -39 25 23 14 66 13 81 -4 44
-12 -26 -13 -27 -14 -8 -1 12 -6 25 -11 28 -7 4 -8 -3 -3 -22z"/>
</g>
</svg>
